<?xml version="1.0" standalone="no"?><!DOCTYPE svg PUBLIC "-//W3C//DTD SVG 1.1//EN" "http://www.w3.org/Graphics/SVG/1.1/DTD/svg11.dtd"><svg t="1573180209994" class="icon" viewBox="0 0 1024 1024" version="1.1" xmlns="http://www.w3.org/2000/svg" p-id="2573" xmlns:xlink="http://www.w3.org/1999/xlink" width="200" height="200"><defs><style type="text/css"></style></defs><path d="M96 565c17.7 0 32-14.3 32-32v-51c0-17.7-14.3-32-32-32s-32 14.3-32 32v51c0 17.7 14.3 32 32 32z m468.5 104c5.5 3.7 11.7 5.5 17.9 5.5 10.3 0 20.3-4.9 26.5-14.1 10-14.8 22.1-28.1 35.8-39.7 13.5-11.4 15.3-31.5 4-45.1-11.4-13.5-31.5-15.3-45.1-4-18.3 15.3-34.3 33.1-47.7 52.8-9.9 14.8-6.1 34.7 8.6 44.6zM768 640c-17.7 0-32 14.3-32 32v96c0 17.7 14.3 32 32 32h96.1c17.7 0 32-14.3 32-32s-14.3-32-32-32H800v-64c0-17.7-14.3-32-32-32z m256-416V32c0-17.7-14.3-32-32-32H32C14.3 0 0 14.3 0 32v192c0 17.7 14.3 32 32 32h32.2c-0.1 30.6-0.2 78.3-0.2 121 0 17.7 14.3 32 32 32s32-14.3 32-32c0-42.8 0.1-90.4 0.2-121H224v224c0 12.1 6.8 23.2 17.7 28.6 10.8 5.4 23.8 4.3 33.5-3L384 424l108.8 81.6c5.6 4.2 12.4 6.4 19.2 6.4 4.9 0 9.8-1.1 14.3-3.4 10.8-5.4 17.7-16.5 17.7-28.6V256h352v290.2c-38.5-22.3-82.3-34.2-128-34.2-25.7 0-51.2 3.8-75.5 11.3-16.9 5.2-26.4 23.1-21.1 40 5.2 16.9 23.1 26.4 40 21.1 18.3-5.6 37.3-8.5 56.7-8.5 105.9 0 192 86.1 192 192 0 105.8-86 191.8-191.7 192-56.7-0.1-107.7-24.8-142.8-64h-0.6c-30.5-34-49-78.9-49-128 0-13.7 1.4-27.3 4.3-40.6 3.7-17.3-7.3-34.3-24.6-38-17.3-3.7-34.3 7.3-38 24.6-3.8 17.7-5.7 35.8-5.7 54 0 45.7 11.9 89.5 34.2 128H224c-52.9 0-96-43.1-96-96V646c0-17.7-14.3-32-32-32s-32 14.3-32 32v154c0 88.2 71.8 160 160 160h374.7c46.8 41.4 106.3 64 169.3 64 68.4 0 132.7-26.6 181-75 48.4-48.4 75-112.6 75-181 0-63-22.6-122.5-64-169.3V256h32c17.7 0 32-14.3 32-32z m-800-32H64V64h160v128z m256 224l-76.8-57.6c-5.7-4.3-12.4-6.4-19.2-6.4s-13.5 2.1-19.2 6.4L288 416V64h192v352z m480-224H544V64h416v128z" fill="" p-id="2574"></path></svg>