<?xml version="1.0" standalone="no"?><!DOCTYPE svg PUBLIC "-//W3C//DTD SVG 1.1//EN" "http://www.w3.org/Graphics/SVG/1.1/DTD/svg11.dtd"><svg t="1573180283447" class="icon" viewBox="0 0 1024 1024" version="1.1" xmlns="http://www.w3.org/2000/svg" p-id="4168" xmlns:xlink="http://www.w3.org/1999/xlink" width="200" height="200"><defs><style type="text/css"></style></defs><path d="M870.4 98.133333h-396.8C426.666667 98.133333 384 136.533333 384 187.733333v98.133334H238.933333c-8.533333 0-17.066667 4.266667-25.6 12.8l-153.6 213.333333v243.2c0 12.8 12.8 25.6 25.6 25.6h51.2v12.8c0 55.466667 46.933333 102.4 102.4 102.4C294.4 896 341.333333 849.066667 341.333333 793.6v-12.8h277.333334v12.8c0 55.466667 46.933333 102.4 102.4 102.4 55.466667 0 102.4-46.933333 102.4-102.4v-12.8h102.4c17.066667 0 34.133333-12.8 34.133333-34.133333V187.733333c0-51.2-38.4-89.6-89.6-89.6z" fill="#FFDA00" p-id="4169"></path><path d="M238.933333 665.6c-68.266667 0-123.733333 55.466667-123.733333 123.733333s55.466667 123.733333 123.733333 123.733334 123.733333-55.466667 123.733334-123.733334-51.2-123.733333-123.733334-123.733333z m0 209.066667c-46.933333 0-81.066667-38.4-81.066666-81.066667s38.4-81.066667 81.066666-81.066667 81.066667 38.4 81.066667 81.066667-34.133333 81.066667-81.066667 81.066667zM721.066667 665.6c-68.266667 0-123.733333 55.466667-123.733334 123.733333s55.466667 123.733333 123.733334 123.733334 123.733333-55.466667 123.733333-123.733334-55.466667-123.733333-123.733333-123.733333z m0 209.066667c-46.933333 0-81.066667-38.4-81.066667-81.066667s38.4-81.066667 81.066667-81.066667 81.066667 38.4 81.066666 81.066667-34.133333 81.066667-81.066666 81.066667zM345.6 345.6H256c-17.066667 0-34.133333 8.533333-42.666667 21.333333l-55.466666 81.066667c-4.266667 8.533333-8.533333 17.066667-4.266667 29.866667 0 8.533333 8.533333 17.066667 17.066667 25.6 8.533333 4.266667 12.8 8.533333 21.333333 8.533333h153.6c25.6 0 42.666667-21.333333 42.666667-42.666667V388.266667c0-21.333333-21.333333-42.666667-42.666667-42.666667z m0 119.466667H200.533333l51.2-72.533334c0-4.266667 4.266667-4.266667 8.533334-4.266666h89.6l-4.266667 76.8zM507.733333 307.2h332.8c12.8 0 21.333333-8.533333 21.333334-21.333333s-8.533333-21.333333-21.333334-21.333334h-332.8c-12.8 0-21.333333 8.533333-21.333333 21.333334s8.533333 21.333333 21.333333 21.333333zM836.266667 366.933333h-332.8c-12.8 0-21.333333 8.533333-21.333334 21.333334s8.533333 21.333333 21.333334 21.333333h332.8c12.8 0 21.333333-8.533333 21.333333-21.333333s-8.533333-21.333333-21.333333-21.333334zM836.266667 465.066667h-332.8c-12.8 0-21.333333 8.533333-21.333334 21.333333s8.533333 21.333333 21.333334 21.333333h332.8c12.8 0 21.333333-8.533333 21.333333-21.333333s-8.533333-21.333333-21.333333-21.333333z" fill="#111111" p-id="4170"></path></svg>