<?xml version="1.0" standalone="no"?><!DOCTYPE svg PUBLIC "-//W3C//DTD SVG 1.1//EN" "http://www.w3.org/Graphics/SVG/1.1/DTD/svg11.dtd"><svg t="1573180343277" class="icon" viewBox="0 0 1024 1024" version="1.1" xmlns="http://www.w3.org/2000/svg" p-id="5643" xmlns:xlink="http://www.w3.org/1999/xlink" width="200" height="200"><defs><style type="text/css"></style></defs><path d="M800 0 224 0C160 0 102.4 57.6 102.4 121.6l0 780.8c0 70.4 57.6 121.6 121.6 121.6l569.6 0c70.4 0 121.6-57.6 121.6-121.6L915.2 121.6C921.6 57.6 864 0 800 0zM870.4 902.4c0 38.4-32 70.4-70.4 70.4L224 972.8c-38.4 0-70.4-32-70.4-70.4L153.6 121.6c0-38.4 32-70.4 70.4-70.4l569.6 0c38.4 0 70.4 32 70.4 70.4L864 902.4z" p-id="5644"></path><path d="M307.2 345.6 352 262.4 435.2 249.6 371.2 192 390.4 102.4 313.6 140.8 230.4 102.4 249.6 185.6 179.2 249.6 268.8 262.4Z" p-id="5645"></path><path d="M755.2 454.4l-384 0c-6.4 0-12.8 6.4-12.8 12.8s6.4 12.8 12.8 12.8l384 0c6.4 0 12.8-6.4 12.8-12.8S761.6 454.4 755.2 454.4z" p-id="5646"></path><path d="M755.2 633.6 281.6 633.6c-6.4 0-12.8 6.4-12.8 12.8s6.4 12.8 12.8 12.8l473.6 0c6.4 0 12.8-6.4 12.8-12.8S761.6 633.6 755.2 633.6z" p-id="5647"></path><path d="M755.2 812.8 281.6 812.8c-6.4 0-12.8 6.4-12.8 12.8 0 6.4 6.4 12.8 12.8 12.8l473.6 0c6.4 0 12.8-6.4 12.8-12.8C768 819.2 761.6 812.8 755.2 812.8z" p-id="5648"></path></svg>